<mxfile host="Electron" modified="2024-05-19T13:41:20.903Z" agent="Mozilla/5.0 (Windows NT 10.0; Win64; x64) AppleWebKit/537.36 (KHTML, like Gecko) draw.io/24.4.0 Chrome/120.0.6099.109 Electron/28.1.0 Safari/537.36" etag="teS1lk5Y6W_9hPKuieAk" version="24.4.0" type="device">
  <diagram name="Page-1" id="13e1069c-82ec-6db2-03f1-153e76fe0fe0">
    <mxGraphModel dx="2088" dy="-280" grid="1" gridSize="10" guides="1" tooltips="1" connect="1" arrows="1" fold="1" page="1" pageScale="1" pageWidth="1100" pageHeight="850" background="none" math="0" shadow="0">
      <root>
        <mxCell id="0" />
        <mxCell id="1" parent="0" />
        <mxCell id="zR7FLB7YpDWYiMxdjNDM-1" value="System" style="shape=umlLifeline;perimeter=lifelinePerimeter;whiteSpace=wrap;html=1;container=1;collapsible=0;recursiveResize=0;outlineConnect=0;rounded=1;shadow=0;comic=0;labelBackgroundColor=none;strokeWidth=1;fontFamily=Verdana;fontSize=12;align=center;fontStyle=1" vertex="1" parent="1">
          <mxGeometry x="-390" y="940" width="100" height="1500" as="geometry" />
        </mxCell>
        <mxCell id="zR7FLB7YpDWYiMxdjNDM-2" value="" style="html=1;points=[];perimeter=orthogonalPerimeter;rounded=0;shadow=0;comic=0;labelBackgroundColor=none;strokeWidth=1;fontFamily=Verdana;fontSize=12;align=center;" vertex="1" parent="zR7FLB7YpDWYiMxdjNDM-1">
          <mxGeometry x="45" y="100" width="10" height="1350" as="geometry" />
        </mxCell>
        <mxCell id="zR7FLB7YpDWYiMxdjNDM-52" value="" style="html=1;points=[[0,0,0,0,5],[0,1,0,0,-5],[1,0,0,0,5],[1,1,0,0,-5]];perimeter=orthogonalPerimeter;outlineConnect=0;targetShapes=umlLifeline;portConstraint=eastwest;newEdgeStyle={&quot;curved&quot;:0,&quot;rounded&quot;:0};" vertex="1" parent="zR7FLB7YpDWYiMxdjNDM-1">
          <mxGeometry x="50" y="200" width="10" height="90" as="geometry" />
        </mxCell>
        <mxCell id="zR7FLB7YpDWYiMxdjNDM-53" value="isUsernameUnique(username)" style="html=1;align=left;spacingLeft=2;endArrow=block;rounded=0;edgeStyle=orthogonalEdgeStyle;curved=0;rounded=0;" edge="1" target="zR7FLB7YpDWYiMxdjNDM-52" parent="zR7FLB7YpDWYiMxdjNDM-1">
          <mxGeometry relative="1" as="geometry">
            <mxPoint x="55" y="180" as="sourcePoint" />
            <Array as="points">
              <mxPoint x="85" y="210" />
            </Array>
          </mxGeometry>
        </mxCell>
        <mxCell id="zR7FLB7YpDWYiMxdjNDM-81" value="" style="html=1;points=[[0,0,0,0,5],[0,1,0,0,-5],[1,0,0,0,5],[1,1,0,0,-5]];perimeter=orthogonalPerimeter;outlineConnect=0;targetShapes=umlLifeline;portConstraint=eastwest;newEdgeStyle={&quot;curved&quot;:0,&quot;rounded&quot;:0};" vertex="1" parent="zR7FLB7YpDWYiMxdjNDM-1">
          <mxGeometry x="50" y="980" width="10" height="40" as="geometry" />
        </mxCell>
        <mxCell id="zR7FLB7YpDWYiMxdjNDM-82" value="createUser(user)" style="html=1;align=left;spacingLeft=2;endArrow=block;rounded=0;edgeStyle=orthogonalEdgeStyle;curved=0;rounded=0;" edge="1" target="zR7FLB7YpDWYiMxdjNDM-81" parent="zR7FLB7YpDWYiMxdjNDM-1">
          <mxGeometry relative="1" as="geometry">
            <mxPoint x="55" y="960" as="sourcePoint" />
            <Array as="points">
              <mxPoint x="85" y="990" />
            </Array>
          </mxGeometry>
        </mxCell>
        <mxCell id="zR7FLB7YpDWYiMxdjNDM-83" value="" style="html=1;points=[[0,0,0,0,5],[0,1,0,0,-5],[1,0,0,0,5],[1,1,0,0,-5]];perimeter=orthogonalPerimeter;outlineConnect=0;targetShapes=umlLifeline;portConstraint=eastwest;newEdgeStyle={&quot;curved&quot;:0,&quot;rounded&quot;:0};" vertex="1" parent="zR7FLB7YpDWYiMxdjNDM-1">
          <mxGeometry x="50" y="1080" width="10" height="40" as="geometry" />
        </mxCell>
        <mxCell id="zR7FLB7YpDWYiMxdjNDM-84" value="sendVerificationEmail(user)" style="html=1;align=left;spacingLeft=2;endArrow=block;rounded=0;edgeStyle=orthogonalEdgeStyle;curved=0;rounded=0;" edge="1" parent="zR7FLB7YpDWYiMxdjNDM-1" target="zR7FLB7YpDWYiMxdjNDM-83">
          <mxGeometry relative="1" as="geometry">
            <mxPoint x="55" y="1060" as="sourcePoint" />
            <Array as="points">
              <mxPoint x="85" y="1090" />
            </Array>
          </mxGeometry>
        </mxCell>
        <mxCell id="zR7FLB7YpDWYiMxdjNDM-9" value="User" style="shape=umlLifeline;perimeter=lifelinePerimeter;whiteSpace=wrap;html=1;container=1;collapsible=0;recursiveResize=0;outlineConnect=0;rounded=1;shadow=0;comic=0;labelBackgroundColor=none;strokeWidth=1;fontFamily=Verdana;fontSize=12;align=center;fontStyle=1" vertex="1" parent="1">
          <mxGeometry x="-790" y="940" width="100" height="1500" as="geometry" />
        </mxCell>
        <mxCell id="zR7FLB7YpDWYiMxdjNDM-10" value="" style="html=1;points=[];perimeter=orthogonalPerimeter;rounded=0;shadow=0;comic=0;labelBackgroundColor=none;strokeWidth=1;fontFamily=Verdana;fontSize=12;align=center;" vertex="1" parent="zR7FLB7YpDWYiMxdjNDM-9">
          <mxGeometry x="45" y="100" width="10" height="1350" as="geometry" />
        </mxCell>
        <mxCell id="zR7FLB7YpDWYiMxdjNDM-39" value="submitUsername()" style="html=1;verticalAlign=bottom;endArrow=block;labelBackgroundColor=none;fontFamily=Verdana;fontSize=12;edgeStyle=elbowEdgeStyle;elbow=vertical;entryX=-0.252;entryY=0.029;entryDx=0;entryDy=0;entryPerimeter=0;" edge="1" parent="zR7FLB7YpDWYiMxdjNDM-9" target="zR7FLB7YpDWYiMxdjNDM-98">
          <mxGeometry relative="1" as="geometry">
            <mxPoint x="55" y="140" as="sourcePoint" />
            <mxPoint x="445" y="140" as="targetPoint" />
          </mxGeometry>
        </mxCell>
        <mxCell id="zR7FLB7YpDWYiMxdjNDM-44" value="submitEmail()" style="html=1;verticalAlign=bottom;endArrow=block;entryX=0;entryY=0;labelBackgroundColor=none;fontFamily=Verdana;fontSize=12;edgeStyle=elbowEdgeStyle;elbow=vertical;" edge="1" parent="1">
          <mxGeometry relative="1" as="geometry">
            <mxPoint x="-735" y="1310" as="sourcePoint" />
            <mxPoint x="-345" y="1310" as="targetPoint" />
          </mxGeometry>
        </mxCell>
        <mxCell id="zR7FLB7YpDWYiMxdjNDM-45" value="presentTandCs()" style="html=1;verticalAlign=bottom;endArrow=block;entryX=0;entryY=0;labelBackgroundColor=none;fontFamily=Verdana;fontSize=12;edgeStyle=elbowEdgeStyle;elbow=vertical;" edge="1" parent="1">
          <mxGeometry relative="1" as="geometry">
            <mxPoint x="-345" y="1760.25" as="sourcePoint" />
            <mxPoint x="-735" y="1760.25" as="targetPoint" />
          </mxGeometry>
        </mxCell>
        <mxCell id="zR7FLB7YpDWYiMxdjNDM-46" value="agreeTandCs()" style="html=1;verticalAlign=bottom;endArrow=block;entryX=0;entryY=0;labelBackgroundColor=none;fontFamily=Verdana;fontSize=12;edgeStyle=elbowEdgeStyle;elbow=vertical;" edge="1" parent="1">
          <mxGeometry relative="1" as="geometry">
            <mxPoint x="-735" y="1810" as="sourcePoint" />
            <mxPoint x="-345" y="1810" as="targetPoint" />
          </mxGeometry>
        </mxCell>
        <mxCell id="zR7FLB7YpDWYiMxdjNDM-47" value="submitSignUpForm(user)" style="html=1;verticalAlign=bottom;endArrow=block;entryX=0;entryY=0;labelBackgroundColor=none;fontFamily=Verdana;fontSize=12;edgeStyle=elbowEdgeStyle;elbow=vertical;" edge="1" parent="1">
          <mxGeometry relative="1" as="geometry">
            <mxPoint x="-735" y="1859.68" as="sourcePoint" />
            <mxPoint x="-345" y="1859.68" as="targetPoint" />
          </mxGeometry>
        </mxCell>
        <mxCell id="zR7FLB7YpDWYiMxdjNDM-54" value="loop" style="shape=umlFrame;whiteSpace=wrap;html=1;pointerEvents=0;" vertex="1" parent="1">
          <mxGeometry x="-1010" y="1100" width="920" height="160" as="geometry" />
        </mxCell>
        <mxCell id="zR7FLB7YpDWYiMxdjNDM-55" value="[while not unique]" style="text;html=1;align=center;verticalAlign=middle;whiteSpace=wrap;rounded=0;" vertex="1" parent="1">
          <mxGeometry x="-950" y="1165" width="110" height="30" as="geometry" />
        </mxCell>
        <mxCell id="zR7FLB7YpDWYiMxdjNDM-57" value="promptUniqueUsername()" style="html=1;verticalAlign=bottom;endArrow=block;entryX=0;entryY=0;labelBackgroundColor=none;fontFamily=Verdana;fontSize=12;edgeStyle=elbowEdgeStyle;elbow=vertical;" edge="1" parent="1">
          <mxGeometry x="0.001" relative="1" as="geometry">
            <mxPoint x="-345" y="1164.71" as="sourcePoint" />
            <mxPoint x="-735" y="1164.71" as="targetPoint" />
            <mxPoint as="offset" />
          </mxGeometry>
        </mxCell>
        <mxCell id="zR7FLB7YpDWYiMxdjNDM-58" value="submitUsername()" style="html=1;verticalAlign=bottom;endArrow=open;dashed=1;endSize=8;labelBackgroundColor=none;fontFamily=Verdana;fontSize=12;edgeStyle=elbowEdgeStyle;elbow=vertical;" edge="1" parent="1">
          <mxGeometry relative="1" as="geometry">
            <mxPoint x="-345" y="1214.8823529411766" as="targetPoint" />
            <mxPoint x="-730" y="1215" as="sourcePoint" />
          </mxGeometry>
        </mxCell>
        <mxCell id="zR7FLB7YpDWYiMxdjNDM-59" value="" style="html=1;points=[[0,0,0,0,5],[0,1,0,0,-5],[1,0,0,0,5],[1,1,0,0,-5]];perimeter=orthogonalPerimeter;outlineConnect=0;targetShapes=umlLifeline;portConstraint=eastwest;newEdgeStyle={&quot;curved&quot;:0,&quot;rounded&quot;:0};" vertex="1" parent="1">
          <mxGeometry x="-340" y="1370" width="10" height="90" as="geometry" />
        </mxCell>
        <mxCell id="zR7FLB7YpDWYiMxdjNDM-60" value="IsEmailValid(email)" style="html=1;align=left;spacingLeft=2;endArrow=block;rounded=0;edgeStyle=orthogonalEdgeStyle;curved=0;rounded=0;" edge="1" parent="1" target="zR7FLB7YpDWYiMxdjNDM-59">
          <mxGeometry relative="1" as="geometry">
            <mxPoint x="-335" y="1350" as="sourcePoint" />
            <Array as="points">
              <mxPoint x="-305" y="1380" />
            </Array>
          </mxGeometry>
        </mxCell>
        <mxCell id="zR7FLB7YpDWYiMxdjNDM-61" value="loop" style="shape=umlFrame;whiteSpace=wrap;html=1;pointerEvents=0;" vertex="1" parent="1">
          <mxGeometry x="-1010" y="1330" width="920" height="160" as="geometry" />
        </mxCell>
        <mxCell id="zR7FLB7YpDWYiMxdjNDM-62" value="[while not valid]" style="text;html=1;align=center;verticalAlign=middle;whiteSpace=wrap;rounded=0;" vertex="1" parent="1">
          <mxGeometry x="-950" y="1395" width="110" height="30" as="geometry" />
        </mxCell>
        <mxCell id="zR7FLB7YpDWYiMxdjNDM-63" value="promptValidEmail()" style="html=1;verticalAlign=bottom;endArrow=block;entryX=0;entryY=0;labelBackgroundColor=none;fontFamily=Verdana;fontSize=12;edgeStyle=elbowEdgeStyle;elbow=vertical;" edge="1" parent="1">
          <mxGeometry x="0.001" relative="1" as="geometry">
            <mxPoint x="-345" y="1394.71" as="sourcePoint" />
            <mxPoint x="-735" y="1394.71" as="targetPoint" />
            <mxPoint as="offset" />
          </mxGeometry>
        </mxCell>
        <mxCell id="zR7FLB7YpDWYiMxdjNDM-64" value="submitEmail()" style="html=1;verticalAlign=bottom;endArrow=open;dashed=1;endSize=8;labelBackgroundColor=none;fontFamily=Verdana;fontSize=12;edgeStyle=elbowEdgeStyle;elbow=vertical;" edge="1" parent="1">
          <mxGeometry relative="1" as="geometry">
            <mxPoint x="-345" y="1444.8823529411766" as="targetPoint" />
            <mxPoint x="-730" y="1445" as="sourcePoint" />
          </mxGeometry>
        </mxCell>
        <mxCell id="zR7FLB7YpDWYiMxdjNDM-72" value="submitPassword()" style="html=1;verticalAlign=bottom;endArrow=block;entryX=0;entryY=0;labelBackgroundColor=none;fontFamily=Verdana;fontSize=12;edgeStyle=elbowEdgeStyle;elbow=vertical;" edge="1" parent="1">
          <mxGeometry relative="1" as="geometry">
            <mxPoint x="-735" y="1540" as="sourcePoint" />
            <mxPoint x="-345" y="1540" as="targetPoint" />
          </mxGeometry>
        </mxCell>
        <mxCell id="zR7FLB7YpDWYiMxdjNDM-73" value="" style="html=1;points=[[0,0,0,0,5],[0,1,0,0,-5],[1,0,0,0,5],[1,1,0,0,-5]];perimeter=orthogonalPerimeter;outlineConnect=0;targetShapes=umlLifeline;portConstraint=eastwest;newEdgeStyle={&quot;curved&quot;:0,&quot;rounded&quot;:0};" vertex="1" parent="1">
          <mxGeometry x="-340" y="1600" width="10" height="90" as="geometry" />
        </mxCell>
        <mxCell id="zR7FLB7YpDWYiMxdjNDM-74" value="isSecure(password)" style="html=1;align=left;spacingLeft=2;endArrow=block;rounded=0;edgeStyle=orthogonalEdgeStyle;curved=0;rounded=0;" edge="1" parent="1" target="zR7FLB7YpDWYiMxdjNDM-73">
          <mxGeometry relative="1" as="geometry">
            <mxPoint x="-335" y="1580" as="sourcePoint" />
            <Array as="points">
              <mxPoint x="-305" y="1610" />
            </Array>
          </mxGeometry>
        </mxCell>
        <mxCell id="zR7FLB7YpDWYiMxdjNDM-75" value="loop" style="shape=umlFrame;whiteSpace=wrap;html=1;pointerEvents=0;" vertex="1" parent="1">
          <mxGeometry x="-1010" y="1560" width="920" height="160" as="geometry" />
        </mxCell>
        <mxCell id="zR7FLB7YpDWYiMxdjNDM-76" value="[while not secure]" style="text;html=1;align=center;verticalAlign=middle;whiteSpace=wrap;rounded=0;" vertex="1" parent="1">
          <mxGeometry x="-950" y="1625" width="110" height="30" as="geometry" />
        </mxCell>
        <mxCell id="zR7FLB7YpDWYiMxdjNDM-77" value="promptSecurePassword()" style="html=1;verticalAlign=bottom;endArrow=block;entryX=0;entryY=0;labelBackgroundColor=none;fontFamily=Verdana;fontSize=12;edgeStyle=elbowEdgeStyle;elbow=vertical;" edge="1" parent="1">
          <mxGeometry x="0.001" relative="1" as="geometry">
            <mxPoint x="-345" y="1624.71" as="sourcePoint" />
            <mxPoint x="-735" y="1624.71" as="targetPoint" />
            <mxPoint as="offset" />
          </mxGeometry>
        </mxCell>
        <mxCell id="zR7FLB7YpDWYiMxdjNDM-78" value="submitPassword()" style="html=1;verticalAlign=bottom;endArrow=open;dashed=1;endSize=8;labelBackgroundColor=none;fontFamily=Verdana;fontSize=12;edgeStyle=elbowEdgeStyle;elbow=vertical;" edge="1" parent="1">
          <mxGeometry relative="1" as="geometry">
            <mxPoint x="-345" y="1674.8823529411766" as="targetPoint" />
            <mxPoint x="-730" y="1675" as="sourcePoint" />
          </mxGeometry>
        </mxCell>
        <mxCell id="zR7FLB7YpDWYiMxdjNDM-85" value="" style="html=1;points=[[0,0,0,0,5],[0,1,0,0,-5],[1,0,0,0,5],[1,1,0,0,-5]];perimeter=orthogonalPerimeter;outlineConnect=0;targetShapes=umlLifeline;portConstraint=eastwest;newEdgeStyle={&quot;curved&quot;:0,&quot;rounded&quot;:0};" vertex="1" parent="1">
          <mxGeometry x="-340" y="2160" width="10" height="50" as="geometry" />
        </mxCell>
        <mxCell id="zR7FLB7YpDWYiMxdjNDM-86" value="CreateUserAccount(user)" style="html=1;align=left;spacingLeft=2;endArrow=block;rounded=0;edgeStyle=orthogonalEdgeStyle;curved=0;rounded=0;" edge="1" parent="1" target="zR7FLB7YpDWYiMxdjNDM-85">
          <mxGeometry relative="1" as="geometry">
            <mxPoint x="-335" y="2140" as="sourcePoint" />
            <Array as="points">
              <mxPoint x="-305" y="2170" />
            </Array>
          </mxGeometry>
        </mxCell>
        <mxCell id="zR7FLB7YpDWYiMxdjNDM-87" value="alt" style="shape=umlFrame;whiteSpace=wrap;html=1;pointerEvents=0;" vertex="1" parent="1">
          <mxGeometry x="-1010" y="2120" width="920" height="240" as="geometry" />
        </mxCell>
        <mxCell id="zR7FLB7YpDWYiMxdjNDM-88" value="[if verified]&lt;div&gt;&lt;br&gt;&lt;/div&gt;&lt;div&gt;&lt;br&gt;&lt;/div&gt;&lt;div&gt;&lt;br&gt;&lt;/div&gt;&lt;div&gt;&lt;br&gt;&lt;/div&gt;&lt;div&gt;&lt;br&gt;&lt;/div&gt;&lt;div&gt;&lt;br&gt;&lt;/div&gt;&lt;div&gt;&lt;br&gt;&lt;/div&gt;&lt;div&gt;[else]&lt;/div&gt;" style="text;html=1;align=left;verticalAlign=middle;whiteSpace=wrap;rounded=0;" vertex="1" parent="1">
          <mxGeometry x="-950" y="2225" width="110" height="30" as="geometry" />
        </mxCell>
        <mxCell id="zR7FLB7YpDWYiMxdjNDM-91" value="verifyEmail(user)" style="html=1;verticalAlign=bottom;endArrow=block;entryX=0;entryY=0;labelBackgroundColor=none;fontFamily=Verdana;fontSize=12;edgeStyle=elbowEdgeStyle;elbow=vertical;" edge="1" parent="1">
          <mxGeometry x="0.001" relative="1" as="geometry">
            <mxPoint x="-735" y="2090.4700000000003" as="sourcePoint" />
            <mxPoint x="-345" y="2090.4700000000003" as="targetPoint" />
            <mxPoint as="offset" />
          </mxGeometry>
        </mxCell>
        <mxCell id="zR7FLB7YpDWYiMxdjNDM-94" value="" style="line;strokeWidth=2;html=1;perimeter=backbonePerimeter;points=[];outlineConnect=0;dashed=1;" vertex="1" parent="1">
          <mxGeometry x="-1010" y="2235" width="920" height="10" as="geometry" />
        </mxCell>
        <mxCell id="zR7FLB7YpDWYiMxdjNDM-95" value="" style="html=1;points=[[0,0,0,0,5],[0,1,0,0,-5],[1,0,0,0,5],[1,1,0,0,-5]];perimeter=orthogonalPerimeter;outlineConnect=0;targetShapes=umlLifeline;portConstraint=eastwest;newEdgeStyle={&quot;curved&quot;:0,&quot;rounded&quot;:0};" vertex="1" parent="1">
          <mxGeometry x="-335" y="2290" width="10" height="50" as="geometry" />
        </mxCell>
        <mxCell id="zR7FLB7YpDWYiMxdjNDM-96" value="suspendUserAccount(user)" style="html=1;align=left;spacingLeft=2;endArrow=block;rounded=0;edgeStyle=orthogonalEdgeStyle;curved=0;rounded=0;" edge="1" parent="1" target="zR7FLB7YpDWYiMxdjNDM-95">
          <mxGeometry relative="1" as="geometry">
            <mxPoint x="-330" y="2270" as="sourcePoint" />
            <Array as="points">
              <mxPoint x="-300" y="2300" />
            </Array>
          </mxGeometry>
        </mxCell>
        <mxCell id="zR7FLB7YpDWYiMxdjNDM-97" value="Question" style="shape=umlLifeline;perimeter=lifelinePerimeter;whiteSpace=wrap;html=1;container=1;collapsible=0;recursiveResize=0;outlineConnect=0;rounded=1;shadow=0;comic=0;labelBackgroundColor=none;strokeWidth=1;fontFamily=Verdana;fontSize=12;align=center;fontStyle=1" vertex="1" parent="1">
          <mxGeometry y="940" width="100" height="1500" as="geometry" />
        </mxCell>
        <mxCell id="zR7FLB7YpDWYiMxdjNDM-98" value="" style="html=1;points=[];perimeter=orthogonalPerimeter;rounded=0;shadow=0;comic=0;labelBackgroundColor=none;strokeWidth=1;fontFamily=Verdana;fontSize=12;align=center;" vertex="1" parent="zR7FLB7YpDWYiMxdjNDM-97">
          <mxGeometry x="45" y="100" width="10" height="1350" as="geometry" />
        </mxCell>
        <mxCell id="zR7FLB7YpDWYiMxdjNDM-99" value="" style="html=1;points=[[0,0,0,0,5],[0,1,0,0,-5],[1,0,0,0,5],[1,1,0,0,-5]];perimeter=orthogonalPerimeter;outlineConnect=0;targetShapes=umlLifeline;portConstraint=eastwest;newEdgeStyle={&quot;curved&quot;:0,&quot;rounded&quot;:0};" vertex="1" parent="zR7FLB7YpDWYiMxdjNDM-97">
          <mxGeometry x="50" y="200" width="10" height="90" as="geometry" />
        </mxCell>
        <mxCell id="zR7FLB7YpDWYiMxdjNDM-100" value="isUsernameUnique(username)" style="html=1;align=left;spacingLeft=2;endArrow=block;rounded=0;edgeStyle=orthogonalEdgeStyle;curved=0;rounded=0;" edge="1" parent="zR7FLB7YpDWYiMxdjNDM-97" target="zR7FLB7YpDWYiMxdjNDM-99">
          <mxGeometry relative="1" as="geometry">
            <mxPoint x="55" y="180" as="sourcePoint" />
            <Array as="points">
              <mxPoint x="85" y="210" />
            </Array>
          </mxGeometry>
        </mxCell>
        <mxCell id="zR7FLB7YpDWYiMxdjNDM-101" value="" style="html=1;points=[[0,0,0,0,5],[0,1,0,0,-5],[1,0,0,0,5],[1,1,0,0,-5]];perimeter=orthogonalPerimeter;outlineConnect=0;targetShapes=umlLifeline;portConstraint=eastwest;newEdgeStyle={&quot;curved&quot;:0,&quot;rounded&quot;:0};" vertex="1" parent="zR7FLB7YpDWYiMxdjNDM-97">
          <mxGeometry x="50" y="980" width="10" height="40" as="geometry" />
        </mxCell>
        <mxCell id="zR7FLB7YpDWYiMxdjNDM-102" value="createUser(user)" style="html=1;align=left;spacingLeft=2;endArrow=block;rounded=0;edgeStyle=orthogonalEdgeStyle;curved=0;rounded=0;" edge="1" parent="zR7FLB7YpDWYiMxdjNDM-97" target="zR7FLB7YpDWYiMxdjNDM-101">
          <mxGeometry relative="1" as="geometry">
            <mxPoint x="55" y="960" as="sourcePoint" />
            <Array as="points">
              <mxPoint x="85" y="990" />
            </Array>
          </mxGeometry>
        </mxCell>
        <mxCell id="zR7FLB7YpDWYiMxdjNDM-103" value="" style="html=1;points=[[0,0,0,0,5],[0,1,0,0,-5],[1,0,0,0,5],[1,1,0,0,-5]];perimeter=orthogonalPerimeter;outlineConnect=0;targetShapes=umlLifeline;portConstraint=eastwest;newEdgeStyle={&quot;curved&quot;:0,&quot;rounded&quot;:0};" vertex="1" parent="zR7FLB7YpDWYiMxdjNDM-97">
          <mxGeometry x="50" y="1080" width="10" height="40" as="geometry" />
        </mxCell>
        <mxCell id="zR7FLB7YpDWYiMxdjNDM-104" value="sendVerificationEmail(user)" style="html=1;align=left;spacingLeft=2;endArrow=block;rounded=0;edgeStyle=orthogonalEdgeStyle;curved=0;rounded=0;" edge="1" parent="zR7FLB7YpDWYiMxdjNDM-97" target="zR7FLB7YpDWYiMxdjNDM-103">
          <mxGeometry relative="1" as="geometry">
            <mxPoint x="55" y="1060" as="sourcePoint" />
            <Array as="points">
              <mxPoint x="85" y="1090" />
            </Array>
          </mxGeometry>
        </mxCell>
        <mxCell id="zR7FLB7YpDWYiMxdjNDM-105" value="" style="html=1;points=[[0,0,0,0,5],[0,1,0,0,-5],[1,0,0,0,5],[1,1,0,0,-5]];perimeter=orthogonalPerimeter;outlineConnect=0;targetShapes=umlLifeline;portConstraint=eastwest;newEdgeStyle={&quot;curved&quot;:0,&quot;rounded&quot;:0};" vertex="1" parent="1">
          <mxGeometry x="50" y="1370" width="10" height="90" as="geometry" />
        </mxCell>
        <mxCell id="zR7FLB7YpDWYiMxdjNDM-106" value="IsEmailValid(email)" style="html=1;align=left;spacingLeft=2;endArrow=block;rounded=0;edgeStyle=orthogonalEdgeStyle;curved=0;rounded=0;" edge="1" parent="1" target="zR7FLB7YpDWYiMxdjNDM-105">
          <mxGeometry relative="1" as="geometry">
            <mxPoint x="55" y="1350" as="sourcePoint" />
            <Array as="points">
              <mxPoint x="85" y="1380" />
            </Array>
          </mxGeometry>
        </mxCell>
        <mxCell id="zR7FLB7YpDWYiMxdjNDM-107" value="" style="html=1;points=[[0,0,0,0,5],[0,1,0,0,-5],[1,0,0,0,5],[1,1,0,0,-5]];perimeter=orthogonalPerimeter;outlineConnect=0;targetShapes=umlLifeline;portConstraint=eastwest;newEdgeStyle={&quot;curved&quot;:0,&quot;rounded&quot;:0};" vertex="1" parent="1">
          <mxGeometry x="50" y="1600" width="10" height="90" as="geometry" />
        </mxCell>
        <mxCell id="zR7FLB7YpDWYiMxdjNDM-108" value="isSecure(password)" style="html=1;align=left;spacingLeft=2;endArrow=block;rounded=0;edgeStyle=orthogonalEdgeStyle;curved=0;rounded=0;" edge="1" parent="1" target="zR7FLB7YpDWYiMxdjNDM-107">
          <mxGeometry relative="1" as="geometry">
            <mxPoint x="55" y="1580" as="sourcePoint" />
            <Array as="points">
              <mxPoint x="85" y="1610" />
            </Array>
          </mxGeometry>
        </mxCell>
        <mxCell id="zR7FLB7YpDWYiMxdjNDM-109" value="" style="html=1;points=[[0,0,0,0,5],[0,1,0,0,-5],[1,0,0,0,5],[1,1,0,0,-5]];perimeter=orthogonalPerimeter;outlineConnect=0;targetShapes=umlLifeline;portConstraint=eastwest;newEdgeStyle={&quot;curved&quot;:0,&quot;rounded&quot;:0};" vertex="1" parent="1">
          <mxGeometry x="50" y="2160" width="10" height="50" as="geometry" />
        </mxCell>
        <mxCell id="zR7FLB7YpDWYiMxdjNDM-110" value="CreateUserAccount(user)" style="html=1;align=left;spacingLeft=2;endArrow=block;rounded=0;edgeStyle=orthogonalEdgeStyle;curved=0;rounded=0;" edge="1" parent="1" target="zR7FLB7YpDWYiMxdjNDM-109">
          <mxGeometry relative="1" as="geometry">
            <mxPoint x="55" y="2140" as="sourcePoint" />
            <Array as="points">
              <mxPoint x="85" y="2170" />
            </Array>
          </mxGeometry>
        </mxCell>
        <mxCell id="zR7FLB7YpDWYiMxdjNDM-111" value="" style="html=1;points=[[0,0,0,0,5],[0,1,0,0,-5],[1,0,0,0,5],[1,1,0,0,-5]];perimeter=orthogonalPerimeter;outlineConnect=0;targetShapes=umlLifeline;portConstraint=eastwest;newEdgeStyle={&quot;curved&quot;:0,&quot;rounded&quot;:0};" vertex="1" parent="1">
          <mxGeometry x="55" y="2290" width="10" height="50" as="geometry" />
        </mxCell>
        <mxCell id="zR7FLB7YpDWYiMxdjNDM-112" value="suspendUserAccount(user)" style="html=1;align=left;spacingLeft=2;endArrow=block;rounded=0;edgeStyle=orthogonalEdgeStyle;curved=0;rounded=0;" edge="1" parent="1" target="zR7FLB7YpDWYiMxdjNDM-111">
          <mxGeometry relative="1" as="geometry">
            <mxPoint x="60" y="2270" as="sourcePoint" />
            <Array as="points">
              <mxPoint x="90" y="2300" />
            </Array>
          </mxGeometry>
        </mxCell>
      </root>
    </mxGraphModel>
  </diagram>
</mxfile>
